<svg xmlns="http://www.w3.org/2000/svg" width="2500" height="2500" viewBox="0 0 192.756 192.756"><g fill-rule="evenodd" clip-rule="evenodd"><path fill="#fff" d="M0 0h192.756v192.756H0z"/><path fill="#1879bf" d="M57.403 77.084h1.885v-1.108h-4.99v1.108h1.775v5.101h1.33zm6.098 2.329v2.772h1.331v-6.209h-1.331v2.328h-2.439v-2.328h-1.22v6.209h1.22v-2.772zm6.875-3.437H65.83v6.209h4.657v-1.108h-3.326v-1.553h2.993v-1.108h-2.993v-1.332h3.215zm7.873 2.107c0-.998-.776-2.218-2.661-2.218-1.552 0-2.771 1.109-2.771 3.216 0 2.106 1.108 3.216 2.771 3.216 1.553 0 2.439-.888 2.661-2.218h-1.22c-.222.776-.665 1.108-1.441 1.108-.998 0-1.441-.998-1.441-2.106 0-1.664.887-2.107 1.441-2.107 1.109 0 1.331.666 1.441 1.109zm.776 4.102h1.22v-6.209h-1.22zm4.879-5.101h1.885v-1.108h-4.99v1.108h1.885v5.101h1.22zm5.433 2.773 2.107-3.881h-1.442l-1.219 2.772-1.331-2.772H85.9l2.217 3.881v2.328h1.22zm3.881-.776c0 2.883 2.217 3.216 2.993 3.216s2.994-.333 2.994-3.216-2.217-3.216-2.994-3.216c-.775 0-2.993.332-2.993 3.216m1.33 0c0-1.664.998-2.107 1.663-2.107s1.664.443 1.664 2.107c0 1.774-.999 2.218-1.664 2.218s-1.663-.445-1.663-2.218m6.764.554h2.772v-1.109h-2.772v-1.442h3.106v-1.108h-4.436v6.209h1.33zm35.704 6.209h3.438v6.099h-3.438v15.745c0 .998.998 1.441.998 1.441h-8.648s.887-.443.887-1.662V91.943h-3.77c-.111-1.331 0-3.992 0-3.992l10.533-11.088zM89.781 96.822c0-2.884 2.439-5.323 5.433-5.323 2.884 0 5.323 2.439 5.323 5.323 0 2.994-2.439 5.434-5.323 5.434a5.44 5.44 0 0 1-5.433-5.434m-7.097 0c0-6.875 5.544-12.419 12.53-12.419a12.4 12.4 0 0 1 12.419 12.419c0 6.984-5.545 12.529-12.419 12.529-6.986.001-12.53-5.544-12.53-12.529"/><path fill="#1879bf" d="M146.996 96.932c0-2.993 2.439-5.432 5.434-5.432s5.322 2.439 5.322 5.432c0 2.885-2.328 5.324-5.322 5.324s-5.434-2.44-5.434-5.324m-7.098 0c0-6.985 5.656-12.529 12.531-12.529 6.873 0 12.529 5.544 12.529 12.529 0 6.875-5.656 12.42-12.529 12.42s-12.531-5.545-12.531-12.42m-13.97-4.102v14.857c0 .998.998 1.441.998 1.441h-8.648s.998-.443.998-1.441c-.111 0 0-13.971 0-13.971s0-.665-.443-1.109c-.332-.443-.777-.554-1.33-.554-.443 0-.889.111-1.221.554-.443.444-.443 1.109-.443 1.109v14.082c0 .887.998 1.33.998 1.33h-8.648s.887-.443.887-1.441l.111-16.632c-.111-1.22-.666-1.109-1.109-1.774.998-.333 1.219-.666 1.773-.998 2.107-2.329 4.658-3.77 7.652-3.659a8.423 8.423 0 0 1 8.426 8.427v-.221zm57.326 0v14.857c0 .998.998 1.441.998 1.441h-8.76s.998-.443.998-1.441v-13.97s0-.665-.332-1.109c-.334-.443-.777-.554-1.33-.554-.555 0-.998.111-1.332.554-.332.444-.332 1.109-.332 1.109v14.082c0 .887.887 1.33.887 1.33h-8.648s.998-.443.998-1.441V91.056c0-.665 0-1.22-1.109-1.774 1.109-.333 1.221-.666 1.773-.998 2.219-2.329 4.658-3.77 7.764-3.659a8.423 8.423 0 0 1 8.426 8.427zM54.298 95.713v-4.657c-.111-.776-.776-1.552-1.109-2.217 2.439-.666 3.992-3.659 6.653-3.992 2.55-.665 5.322-.222 7.429 1.331 2.55-1.996 6.986-2.107 9.757-.444 2.551 1.552 4.325 4.546 4.214 7.651v14.304c0 .998.887 1.441.887 1.441h-8.648s.998-.443.998-1.441V93.717s0-.665-.333-1.109-.887-.554-1.33-.554c-.555 0-.999.111-1.331.554-.333.444-.333 1.109-.333 1.109v14.082c0 .887.887 1.33.887 1.33H63.39s.998-.443.998-1.441V93.717s0-.665-.332-1.109c-.333-.443-.888-.554-1.331-.554-.554 0-.998.111-1.33.554-.444.444-.333 1.109-.333 1.109l-.111 14.082c0 .887.998 1.33.998 1.33H53.3s.998-.443.998-1.441zm-19.404 1.441c0-2.994 2.439-5.433 5.433-5.433s5.433 2.439 5.433 5.433c0 2.883-2.439 5.322-5.433 5.322s-5.433-2.439-5.433-5.322m5.433 12.418c-6.875 0-12.53-5.543-12.53-12.418 0-6.985 5.655-12.53 12.53-12.53 1.885 0 3.659.333 5.322 1.109l-.111-7.54a4.2 4.2 0 0 0-.887-2.218h7.65v27.276c0 1.109.666 1.332.666 1.332-4.435 1.108-7.65 5.435-12.64 4.989"/><path fill="#1879bf" d="M38.886 83.516c-2.329-1.441-5.101-2.329-7.983-2.329-6.986 0-12.641 4.768-14.415 11.088h10.534a13.5 13.5 0 0 0-.887 4.768c0 .887.111 1.664.222 2.439h-9.979c1.441 6.875 7.208 12.086 14.526 12.086 2.994 0 5.655-.887 7.983-2.328v8.095c-2.439.887-5.211 1.441-7.983 1.441-12.308 0-22.398-9.98-22.398-22.399 0-12.308 10.09-22.398 22.398-22.398 2.883 0 5.544.554 7.983 1.441v8.096z"/></g></svg>