<?xml version="1.0" encoding="utf-8"?>
<!-- Generator: Adobe Illustrator 19.2.1, SVG Export Plug-In . SVG Version: 6.00 Build 0)  -->
<svg version="1.1" id="layer" xmlns="http://www.w3.org/2000/svg" xmlns:xlink="http://www.w3.org/1999/xlink" x="0px" y="0px"
	 viewBox="0 0 652 652" style="enable-background:new 0 0 652 652;" xml:space="preserve">
<style type="text/css">
	.st0{fill:#005087;}
	.st1{fill:#FFFFFF;}
</style>
<g>
	<path class="st0" d="M70,571V71h500v500H70z"/>
	<path class="st1" d="M385.2,307.8v30.2h-12.8l0-28.8c0-2.6-2.1-4.8-4.7-4.8s-4.8,2.1-4.8,4.8l0,28.8H350v-38.2
		c4.5-4.5,11.8-7.9,17.6-7.9h0C377.3,292,385.2,298.1,385.2,307.8z M508.7,338.1v-30.2c0-9.7-7.9-15.8-17.6-15.8h0
		c-5.7,0-13.1,3.4-17.6,7.9v38.2h12.8l0-28.8c0-2.6,2.1-4.8,4.7-4.8c2.6,0,4.8,2.1,4.8,4.8l0,28.8H508.7z M275,292L275,292
		c-4.4,0-8.9,1.4-11.2,3.7c-2.4-2.4-7.2-3.7-11.2-3.7c-5.8,0-13.2,3.4-17.6,7.9v38.2h12.7l0-28.8c0-2.6,2.3-4.8,4.9-4.8
		c2.6,0,4.9,2.1,4.9,4.8v28.8h0h12.7h0.1l0-28.8c0-2.6,2.1-4.8,4.8-4.8h0c2.6,0,4.7,2.1,4.7,4.8v28.8h12.8v-30.3
		C292.6,298.1,284.7,292,275,292z M344.9,315.6c0,13-10.6,23.6-23.6,23.6c-13,0-23.6-10.6-23.6-23.6c0-13,10.6-23.6,23.6-23.6
		C334.4,292,344.9,302.5,344.9,315.6z M332.1,315.6c0-5.9-4.8-10.7-10.7-10.7c-5.9,0-10.7,4.8-10.7,10.7c0,5.9,4.8,10.7,10.7,10.7
		C327.3,326.3,332.1,321.5,332.1,315.6z M468.3,315.6c0,13-10.6,23.6-23.6,23.6c-13,0-23.6-10.6-23.6-23.6c0-13,10.6-23.6,23.6-23.6
		C457.8,292,468.3,302.5,468.3,315.6z M455.5,315.6c0-5.9-4.8-10.7-10.7-10.7c-5.9,0-10.7,4.8-10.7,10.7c0,5.9,4.8,10.7,10.7,10.7
		C450.7,326.3,455.5,321.5,455.5,315.6z M410.6,281.4h-3.3c-4.2,6.8-9.8,12.5-16.5,16.8l-0.1,0v8.1h7.2V328c0,4.1,1.4,7.5,3.7,10.1
		h16c-2.9-2.2-6.9-6.5-6.9-13.3v-18.5h8.8v-11.5h-8.9L410.6,281.4L410.6,281.4z M146.1,322h25.5v-16.6c-7.5,2.7-15.8,3.8-25.5,3.8
		l0,0c2.9-13,14.5-22.7,28.4-22.7c5.9,0,11.4,1.8,15.9,4.8v-17.2c-5-1.9-10.3-3-15.9-3c-24.5,0-44.5,20-44.5,44.5
		c0,24.5,20,44.5,44.5,44.5c5.6,0,11-1.1,15.9-3v-17.2c-4.6,3-10.1,4.8-15.9,4.8C160.7,344.7,149.1,335,146.1,322z M215.7,274.1
		h12.8v48.1c0,0.1-0.3,1.8-1.9,4.7c-4,7.3-11.8,12.2-20.7,12.2c-13,0-23.6-10.6-23.6-23.6c0-13,10.6-23.6,23.6-23.6
		c3.5,0,6.8,0.8,9.8,2.1C215.7,294.1,215.7,274.1,215.7,274.1z M216.6,315.6c0-5.9-4.8-10.7-10.7-10.7c-5.9,0-10.7,4.8-10.7,10.7
		c0,5.9,4.8,10.7,10.7,10.7C211.8,326.3,216.6,321.5,216.6,315.6z"/>
</g>
</svg>
