<svg enable-background="new -349 151 100 100" viewBox="-349 151 100 100" xmlns="http://www.w3.org/2000/svg"><path d="m-285.2 198.2v6.4h-2.7v-6.1c0-.6-.5-1-1-1-.6 0-1 .5-1 1v6.1h-2.7v-8.1c.9-.9 2.5-1.7 3.7-1.7 2.1.1 3.7 1.3 3.7 3.4zm26.2 6.4v-6.4c0-2.1-1.7-3.4-3.7-3.4-1.2 0-2.8.7-3.7 1.7v8.1h2.7v-6.1c0-.6.5-1 1-1 .6 0 1 .5 1 1v6.1zm-49.5-9.7c-.9 0-1.9.3-2.4.8-.5-.5-1.5-.8-2.4-.8-1.2 0-2.8.7-3.7 1.7v8.1h2.7v-6.1c0-.6.5-1 1-1 .6 0 1 .5 1 1v6.1h2.7v-6.1c0-.6.5-1 1-1 .6 0 1 .5 1 1v6.1h2.7v-6.4c.1-2.2-1.6-3.4-3.6-3.4zm14.8 4.9c0 2.8-2.2 5-5 5s-5-2.2-5-5 2.2-5 5-5c2.7 0 5 2.3 5 5zm-2.7 0c0-1.3-1-2.3-2.3-2.3s-2.3 1-2.3 2.3 1 2.3 2.3 2.3c1.2 0 2.3-1 2.3-2.3zm28.8 0c0 2.8-2.2 5-5 5s-5-2.2-5-5 2.2-5 5-5 5 2.3 5 5zm-2.7 0c0-1.3-1-2.3-2.3-2.3s-2.3 1-2.3 2.3 1 2.3 2.3 2.3 2.3-1 2.3-2.3zm-9.5-7.2h-.7c-.9 1.4-2.1 2.7-3.5 3.6v1.7h1.5v4.6c0 .9.3 1.6.8 2.1h3.4c-.6-.5-1.5-1.4-1.5-2.8v-3.9h1.9v-2.4h-1.9zm-56.1 8.6h5.4v-3.5c-1.6.6-3.3.8-5.4.8.6-2.8 3.1-4.8 6-4.8 1.2 0 2.4.4 3.4 1v-3.7c-1-.4-2.2-.6-3.4-.6-5.2 0-9.4 4.2-9.4 9.4s4.2 9.4 9.4 9.4c1.2 0 2.3-.2 3.4-.6v-3.6c-1 .6-2.1 1-3.4 1-2.9 0-5.3-2-6-4.8zm14.8-10.1h2.7v10.2s-.1.4-.4 1c-.9 1.5-2.5 2.6-4.4 2.6-2.8 0-5-2.2-5-5s2.2-5 5-5c.7 0 1.4.2 2.1.5zm.2 8.7c0-1.3-1-2.3-2.3-2.3s-2.3 1-2.3 2.3 1 2.3 2.3 2.3 2.3-1 2.3-2.3z" fill="#fff"/></svg>