<?xml version="1.0" encoding="utf-8"?>
<!DOCTYPE svg PUBLIC "-//W3C//DTD SVG 1.1//EN" "http://www.w3.org/Graphics/SVG/1.1/DTD/svg11.dtd" [
	<!ENTITY ns_svg "http://www.w3.org/2000/svg">
	<!ENTITY ns_xlink "http://www.w3.org/1999/xlink">
]>
<svg  version="1.1" xmlns="&ns_svg;" xmlns:xlink="&ns_xlink;" width="220" height="100" viewBox="0 0 220 100"
	 overflow="visible" enable-background="new 0 0 220 100" xml:space="preserve">
<path id="TRANS" fill="#0060A8" d="M3.111,51.615H18.87v6.702l-4.134-0.19v14.114H7.244V58.127l-4.133,0.19V51.615 M29.261,60.751
	v-3.503h0.575c1.284,0,2.408,0.194,2.408,1.781c0,1.532-1.233,1.722-2.464,1.722H29.261 M21.927,72.241h7.334v-6.622h0.137
	l3.281,6.622h8.645l-4.483-6.705c-0.411-0.602-0.875-0.929-1.26-1.23v-0.161c2.793-0.931,3.995-2.244,3.995-5.363
	c0-5.196-3.941-7.166-8.591-7.166h-9.057V72.241z M54.751,64.773h-3.009l1.367-6.295h0.272c0.139,0.879,0.275,1.781,0.494,2.654
	L54.751,64.773 M50.401,69.67h5.661l0.687,2.571h7.93L57.32,51.615h-8.288l-7.169,20.626h7.935L50.401,69.67z M67.223,51.615v20.626
	h7.167v-6.705c0-1.366-0.219-2.707-0.467-4.131h0.219l6.595,10.836h7.166V51.615h-7.166v6.184c0,1.751,0.328,3.527,0.627,5.249
	h-0.216l-6.731-11.433H67.223 M92.957,64.855l-2.295,5.826c2.323,1.175,5.332,1.887,7.93,1.887c4.458,0,8.944-2.432,8.944-7.357
	c0-3.504-2.296-5.198-5.472-5.909l-1.694-0.385c-0.575-0.136-1.504-0.242-1.504-1.01c0-0.848,0.956-1.097,1.613-1.097
	c1.615,0,3.065,0.687,4.35,1.563l2.026-5.279c-2.026-1.231-4.189-1.808-6.539-1.808c-4.488,0-8.947,2.736-8.947,7.631
	c0,3.23,2.462,4.953,5.389,5.474l1.505,0.272c0.684,0.136,1.668,0.219,1.668,1.15c0,0.93-1.175,1.231-1.916,1.231
	c-1.721,0-3.336-0.85-4.677-1.889L92.957,64.855"/>
<path id="LINK" fill="#0060A8" d="M141.784,51.615h7.495v14.004h6.293v6.622h-13.788V51.615 M166.264,72.241V51.615h-7.494v20.626
	H166.264z M170.715,51.615v20.626h7.17v-6.705c0-1.366-0.22-2.707-0.468-4.131h0.222l6.59,10.836h7.168V51.615h-7.168v6.184
	c0,1.751,0.329,3.527,0.63,5.249h-0.22l-6.728-11.433H170.715 M195.273,51.615v20.626h7.307l-0.168-8.644h0.168
	c0.163,0.849,0.82,1.613,1.258,2.406l3.555,6.237h8.698l-7.14-10.587l6.455-10.039h-8.177l-3.61,6.621
	c-0.412,0.737-0.876,1.475-1.039,2.325h-0.168l0.168-8.946H195.273"/>
<path fill="#5C5C5D" d="M155.298,19.217c-0.132,2.521-0.815,7.685,6.342,6.221c4.816-0.985,4.603-1.26,9.093-2.634
	c4.488-1.377,2.873,0.949,2.297,1.965c-0.572,1.021-2.359,2.342-4.292,0.822c-2.237,0.97-8.401,4.33-13.752,4.349
	c-3.23,0.01-5.256-1.435-5.478-5.534c-15.803,4.313-27.009,16.408-37.385,33.348v-3.462c7.516-19.237,24.808-33.858,39.121-37.188
	C153.611,16.556,155.385,17.531,155.298,19.217 M100.18,97.014c21.049-47.54,50.765-60.666,102.314-59.984v-3
	c-47.584-7.295-85.833,9.344-102.314,57.432V97.014 M147.141,14.656c2.431,0.591,5.004-1.394,5.741-4.435
	c0.739-3.041-0.632-5.981-3.063-6.575c-2.433-0.591-5.004,1.394-5.743,4.435C143.336,11.119,144.708,14.065,147.141,14.656"/>
</svg>
