<?xml version="1.0" encoding="utf-8"?>
<!-- Generator: Adobe Illustrator 16.0.3, SVG Export Plug-In . SVG Version: 6.00 Build 0)  -->
<!DOCTYPE svg PUBLIC "-//W3C//DTD SVG 1.1//EN" "http://www.w3.org/Graphics/SVG/1.1/DTD/svg11.dtd">
<svg version="1.1" id="Layer_1" xmlns="http://www.w3.org/2000/svg" xmlns:xlink="http://www.w3.org/1999/xlink" x="0px" y="0px"
	 width="651.793px" height="122.189px" viewBox="0 0 651.793 122.189" enable-background="new 0 0 651.793 122.189"
	 xml:space="preserve">
<g>
	<rect x="0.213" width="299.939" height="120.4"/>
	<rect x="300.104" fill="#F89A20" width="347.365" height="120.4"/>
	<g>
		<path fill="#FFFFFF" d="M144.476,53.705c-4.164,0-7.711,5.675-7.711,12.675c0,7.001,3.547,12.676,7.711,12.676
			c4.254,0,7.799-5.675,7.799-12.676C152.275,59.38,148.73,53.705,144.476,53.705 M168.76,66.38
			c0,13.388-10.901,24.112-24.284,24.112c-13.386,0-24.198-10.724-24.198-24.112c0-13.388,10.812-24.111,24.198-24.111
			C157.859,42.269,168.76,52.992,168.76,66.38"/>
		<path fill="#FFFFFF" d="M205.372,60.972c0-3.723-4.43-6.91-9.841-6.91h-5.847v13.822h5.847
			C200.942,67.884,205.372,64.702,205.372,60.972 M227.533,89.519h-19.856l-10.901-10.817h-7.092v10.817h-15.782V43.246h23.582
			c13.028,0,23.668,7.979,23.668,17.727c0,5.406-3.37,10.282-8.604,13.565L227.533,89.519z"/>
		<polygon fill="#FFFFFF" points="250.58,89.519 234.803,89.519 234.803,43.246 250.58,43.246 250.58,61.421 268.75,43.246 
			287.456,43.246 265.292,65.407 289.408,89.519 269.549,89.519 250.58,70.719 		"/>
		<polygon fill="#FFFFFF" points="102.455,95.003 91.02,95.003 79.498,59.098 67.973,95.003 56.545,95.003 36.062,34.9 51.839,34.9 
			62.303,68.675 72.674,34.9 86.321,34.9 96.692,68.675 107.154,34.9 122.931,34.9 		"/>
		<path d="M333.668,94.993c-6.289,0-12.937-2.741-18.259-7.982l1.953-11.778c7.888,6.202,13.477,7.001,16.753,7.001
			c1.861,0,4.873-1.864,4.873-4.787c0-7.889-24.283-6.654-24.283-25.887c0-10.102,9.93-17.635,20.563-17.635
			c6.385,0,13.032,3.188,18.271,8.682l-5.239,9.841c-6.562-5.677-10.375-5.764-13.118-5.764c-2.572,0-4.877,2.31-4.877,4.257
			c0,7.8,24.375,6.824,24.375,25.623C354.678,87.992,344.13,94.993,333.668,94.993"/>
		<path d="M389.959,64.514c0-6.382-2.835-9.841-6.912-9.841c-3.996,0-6.826,3.459-6.826,9.841v3.37h13.738V64.514L389.959,64.514z
			 M376.221,89.513h-15.771V67.884c0-16.664,10.279-25.623,22.598-25.623c12.323,0,22.689,8.958,22.689,25.623v21.629h-15.777
			V78.701h-13.738V89.513L376.221,89.513z"/>
		<polygon points="416.021,43.238 453.432,43.238 453.432,54.055 431.803,54.055 431.803,60.79 453.432,60.79 453.432,71.606 
			431.803,71.606 431.803,89.511 416.021,89.511 		"/>
		<polygon points="461.759,43.238 497.217,43.238 497.217,54.055 477.545,54.055 477.545,60.79 497.217,60.79 497.217,71.606 
			477.545,71.606 477.545,78.699 497.217,78.699 497.217,89.511 461.759,89.511 		"/>
		<path fill="#FFFFFF" d="M556.698,75.316c0-4.346-3.55-7.889-7.893-7.889h-7.799v15.782h7.799
			C553.148,83.209,556.698,79.662,556.698,75.316 M541.008,56.611h7.363c2.921,0,5.406-2.478,5.406-5.406
			c0-3.012-2.485-5.406-5.406-5.406h-7.363V56.611z M569.549,51.205c0,4.078-1.329,7.27-3.449,10.019
			c3.896,3.375,6.375,8.51,6.375,14.093c0,10.375-9.311,18.705-19.677,18.705h-27.563V34.898c0,0,23.57,0,27.029,0
			C561.222,34.898,569.549,42.251,569.549,51.205"/>
		<path fill="#FFFFFF" d="M602.613,94.993c-13.652,0-22.78-13.558-22.78-30.494c0-16.928,9.128-30.575,22.78-30.575
			c9.573,0,15.873,6.205,19.423,13.292l-6.831,6.826c-2.309-3.189-6.466-6.643-10.016-6.643c-6.3,0-9.758,7.883-9.758,17.1
			c0,9.136,3.458,17.111,9.758,17.111c3.55,0,6.287-2.746,9.22-6.824l7.627,6.824C618.218,89.676,612.188,94.993,602.613,94.993"/>
		<rect fill="none" stroke="#000000" stroke-width="2.8821" width="647.677" height="120.4"/>
	</g>
</g>
</svg>
