<svg xmlns="http://www.w3.org/2000/svg" viewBox="0 0 400 110">

    <defs>

    <style>
        .clsText {
            fill: #10378e;
            opacity: 0.8;
        }

        .clsLines {
            fill: #4486fc;
            opacity: 0.5;
        }
    </style>

    </defs>

    <title>Logo (CRIS)</title>

    <path id="vectorText" class="clsText" d="M101.91643,73.09544A78.4624,78.4624,0,0,1,80.64977,83.9622a84.64565,84.64565,0,0,1-27.704,4.24346,71.87837,71.87837,0,0,1-24.4891-3.917q-10.863-3.917-17.16363-11.37916A26.61522,26.61522,0,0,1,5,55.18788a27.60937,27.60937,0,0,1,6.15644-18.00625A38.41008,38.41008,0,0,1,27.85321,25.662a66.34921,66.34921,0,0,1,23.506-3.96259,63.39286,63.39286,0,0,1,19.82053,3.03267A53.69844,53.69844,0,0,1,87.831,33.54546l-.09489-10.54033h13.34148l.09109,23.13408-9.97859,1.95852A48.81674,48.81674,0,0,0,73.8405,37.27652a64.37666,64.37666,0,0,0-22.48124-3.73106,43.16445,43.16445,0,0,0-16.18437,2.79735,24.23508,24.23508,0,0,0-10.63523,7.69744A17.78816,17.78816,0,0,0,20.85415,54.9981,16.05058,16.05058,0,0,0,25.147,66.10018a27.44772,27.44772,0,0,0,11.61448,7.32168,48.627,48.627,0,0,0,16.18437,2.56582q24.52705,0,42.34733-13.61855Zm133.57417-12.032v3.26421a23.7704,23.7704,0,0,1-3.16931,12.17243,23.50569,23.50569,0,0,1-8.58181,8.62736,22.85078,22.85078,0,0,1-11.75493,3.17311A27.23053,27.23053,0,0,1,200.279,85.82963a36.57821,36.57821,0,0,1-9.09422-5.92491,85.91086,85.91086,0,0,1-7.929-8.30094,87.3114,87.3114,0,0,0-6.29687-6.76373,16.48986,16.48986,0,0,0-5.92491-3.2642,32.11147,32.11147,0,0,0-9.97858-1.26014h-13.1517V75.14885h18.27953v11.846h-52.4208V75.054h19.02726V34.85115H113.76245v-11.846h77.60829q12.59374,0,19.72944,4.85075a15.62511,15.62511,0,0,1,7.1357,13.70965,16.04849,16.04849,0,0,1-6.85862,13.80833q-6.85482,4.94185-18.70084,4.94185h-5.87556a40.70044,40.70044,0,0,1,9.97859,7.557,40.44275,40.44275,0,0,0,7.743,6.11089,15.08848,15.08848,0,0,0,7.46211,1.81809,10.12973,10.12973,0,0,0,7.41658-3.12377,10.921,10.921,0,0,0,3.12376-8.06941V61.06344ZM147.90372,34.85115V49.21743H191.8376q5.4087,0,8.34649-2.00787a6.447,6.447,0,0,0,2.94157-5.644,5.49329,5.49329,0,0,0-2.89223-4.98739q-2.89224-1.7251-8.39583-1.727Zm126.11585,0v40.2977h18.93237v11.846H239.8783v-11.846h19.02726V34.85115H239.8783v-11.846h53.07364v11.846ZM378.865,53.50644q8.392,2.61326,12.26733,6.62329A13.93854,13.93854,0,0,1,395,70.20321q0,8.39773-7.92518,13.24659-7.93087,4.85075-22.01438,4.85075a81.683,81.683,0,0,1-21.87775-3.03267,85.38312,85.38312,0,0,1-20.75425-8.81334V86.99487H308.80989V62.92708l9.42064-1.86364a71.54862,71.54862,0,0,0,21.78285,11.61449,78.77072,78.77072,0,0,0,25.04706,4.05748q6.90036,0,10.54033-1.727,3.63807-1.72509,3.63617-4.80521,0-2.23749-2.7518-3.54508a36.90457,36.90457,0,0,0-9.04867-2.33048q-6.29686-1.02482-21.77906-2.98333a117.16859,117.16859,0,0,1-21.36154-4.29281Q316.365,54.444,312.72693,50.42822a14.42147,14.42147,0,0,1-3.63617-10.07348q0-8.7678,8.20985-13.6641,8.20416-4.902,23.13408-4.9001A70.81946,70.81946,0,0,1,377.09244,32.0538V23.00513H390.525V46.51118l-8.95378,1.77254A47.84014,47.84014,0,0,0,363.8003,37.46251a68.93828,68.93828,0,0,0-23.36561-3.82216A28.6394,28.6394,0,0,0,329.14663,35.504q-4.2928,1.86742-4.29281,4.85075,0,2.2375,2.56582,3.49953a34.27711,34.27711,0,0,0,8.53626,2.28494q5.96666,1.02482,20.24185,2.89223A141.3068,141.3068,0,0,1,378.865,53.50644Z"/>

    <path id="vectorLines" class="clsLines" d="M96.06557,105h-8L114.86049,5h8ZM252.69656,5h-8L217.90164,105h8Zm67.21311,0h-8L285.11475,105h8Z"/>

</svg>
